<?xml version="1.0" standalone="no"?>
<!DOCTYPE svg PUBLIC "-//W3C//DTD SVG 20010904//EN"
 "http://www.w3.org/TR/2001/REC-SVG-20010904/DTD/svg10.dtd">
<svg version="1.0" xmlns="http://www.w3.org/2000/svg"
 width="400.000000pt" height="400.000000pt" viewBox="0 0 400.000000 400.000000"
 preserveAspectRatio="xMidYMid meet">
<metadata>
Created by potrace 1.11, written by Peter Selinger 2001-2013
</metadata>
<g transform="translate(0.000000,400.000000) scale(0.100000,-0.100000)"
fill="#000000" stroke="none">
<path d="M2015 3404 c-34 -9 -87 -35 -81 -41 2 -3 22 1 43 8 105 34 341 0 516
-75 44 -20 83 -34 85 -31 19 19 -104 80 -227 112 -93 24 -287 40 -336 27z"/>
<path d="M2775 3205 c-40 -21 -69 -55 -56 -68 6 -6 21 -1 41 17 17 14 42 29
56 32 28 7 33 34 7 34 -10 0 -31 -7 -48 -15z"/>
<path d="M2820 3105 c-7 -9 -10 -19 -6 -22 8 -9 38 9 44 25 5 17 -23 15 -38
-3z"/>
<path d="M995 2978 c-121 -43 -228 -201 -256 -380 -27 -172 36 -451 116 -518
28 -23 27 -3 -3 62 -57 119 -77 208 -77 353 0 151 19 224 85 323 64 95 145
142 249 142 51 1 54 2 37 15 -23 17 -106 19 -151 3z"/>
<path d="M2950 2940 c0 -5 13 -16 29 -25 35 -17 72 -63 97 -120 17 -39 18 -39
21 -13 6 42 -45 130 -90 155 -27 15 -57 17 -57 3z"/>
<path d="M2728 2934 c-4 -3 2 -25 13 -48 50 -115 58 -210 24 -305 -22 -63 7
-65 39 -3 39 75 29 214 -22 307 -26 47 -42 62 -54 49z"/>
<path d="M2338 2875 c-3 -3 1 -38 9 -78 28 -141 10 -262 -53 -359 -24 -36 -11
-47 24 -21 64 48 99 178 82 311 -16 121 -37 172 -62 147z"/>
<path d="M1186 2823 c-10 -21 -24 -74 -32 -118 l-13 -80 5 90 c5 87 5 89 -13
72 -15 -15 -18 -34 -18 -109 0 -64 4 -93 13 -95 8 -3 12 -25 12 -61 0 -63 24
-226 40 -266 20 -53 27 -23 13 57 -18 100 -12 389 10 485 16 70 9 80 -17 25z"/>
<path d="M3063 2659 c-20 -43 -39 -69 -52 -74 -25 -8 -25 -9 -6 -88 9 -34 19
-102 23 -151 4 -57 12 -91 20 -94 18 -6 16 169 -3 241 -17 66 -19 94 -6 99 18
7 62 91 59 111 -3 17 -12 6 -35 -44z"/>
<path d="M1890 2548 c-41 -136 -101 -226 -166 -250 -33 -12 -44 -31 -24 -43
18 -11 96 32 127 71 56 72 103 190 103 261 0 54 -17 38 -40 -39z"/>
<path d="M2788 2283 c-27 -30 -31 -68 -13 -107 31 -65 95 -57 116 13 10 34 9
44 -8 73 -23 40 -69 50 -95 21z"/>
<path d="M3036 2209 c3 -19 13 -56 22 -84 10 -29 17 -83 17 -130 0 -70 -4 -87
-30 -134 -33 -61 -112 -126 -186 -154 -61 -23 -258 -69 -294 -68 -45 1 -104
-18 -126 -40 -10 -10 -19 -32 -19 -48 0 -62 -96 -107 -168 -79 -37 14 -37 15
-34 64 2 33 -1 54 -10 61 -7 6 -65 13 -128 16 -63 4 -155 14 -203 22 -95 17
-126 16 -89 -4 46 -24 180 -52 285 -58 69 -4 107 -10 107 -17 0 -7 -27 -38
-61 -71 -104 -102 -242 -293 -264 -364 -12 -38 9 -18 71 72 61 86 181 233 232
280 l30 28 21 -30 c48 -67 140 -63 205 10 l36 39 31 -32 c16 -18 87 -109 157
-202 69 -92 128 -163 130 -157 11 33 -205 336 -269 378 -21 14 -39 31 -39 37
0 30 31 54 87 64 340 66 386 81 465 151 69 62 101 134 102 230 0 84 -30 192
-65 232 l-19 22 6 -34z"/>
<path d="M2011 2174 c-12 -15 -21 -33 -21 -41 0 -29 34 -85 58 -96 21 -10 27
-8 49 18 20 23 24 36 20 68 -10 74 -67 101 -106 51z"/>
<path d="M1130 2157 c0 -43 24 -107 39 -107 15 0 14 18 -5 76 -22 66 -34 77
-34 31z"/>
<path d="M980 2102 c0 -25 25 -56 38 -48 8 4 8 15 0 36 -11 33 -38 41 -38 12z"/>
<path d="M1284 1939 c4 -23 14 -55 22 -73 23 -44 74 -96 96 -96 24 0 24 2 -21
46 -24 25 -47 62 -61 102 -26 71 -46 83 -36 21z"/>
<path d="M1515 1951 c-38 -16 -60 -51 -60 -96 0 -36 6 -50 35 -80 33 -34 100
-62 120 -50 21 13 8 33 -25 39 -45 9 -84 43 -91 81 -7 42 13 65 64 72 24 3 42
11 42 18 0 23 -46 32 -85 16z"/>
<path d="M2459 1943 c-9 -10 -23 -13 -46 -10 -36 6 -51 -6 -33 -28 26 -32 120
-5 120 34 0 17 -29 20 -41 4z"/>
<path d="M2318 1388 c-53 -11 -64 -28 -18 -28 32 0 80 19 80 32 0 9 2 9 -62
-4z"/>
<path d="M2500 1181 c0 -88 5 -111 26 -111 11 0 14 18 14 79 0 88 -5 111 -26
111 -11 0 -14 -18 -14 -79z"/>
<path d="M2115 1230 c-5 -9 -1 -70 11 -147 5 -33 27 -45 37 -20 4 12 -9 142
-18 165 -5 14 -21 16 -30 2z"/>
</g>
</svg>
